<svg width="30" height="30" viewBox="0 0 30 30" fill="none" xmlns="http://www.w3.org/2000/svg">
<path d="M16.6992 23.7908V28.9746C16.6992 29.1299 16.6374 29.2789 16.5275 29.3888C16.4177 29.4987 16.2687 29.5604 16.1133 29.5605H13.8867C13.7313 29.5604 13.5823 29.4987 13.4725 29.3888C13.3626 29.2789 13.3008 29.1299 13.3008 28.9746V23.7908H16.6992Z" fill="#D88A55"/>
<path d="M16.6992 23.7908V27.8607L13.3008 24.3978V23.7908H16.6992Z" fill="#C57A44"/>
<path d="M21.6798 26.543H21.6762C21.6185 26.5426 21.5615 26.5307 21.5083 26.5082C21.4552 26.4857 21.407 26.453 21.3665 26.4118C21.326 26.3707 21.294 26.322 21.2724 26.2685C21.2507 26.215 21.2398 26.1577 21.2402 26.1L21.257 23.9652C21.2579 23.8492 21.3046 23.7383 21.3869 23.6567C21.4692 23.575 21.5805 23.5292 21.6964 23.5292H21.6999C21.7576 23.5296 21.8147 23.5414 21.8678 23.564C21.921 23.5865 21.9692 23.6192 22.0097 23.6603C22.0502 23.7015 22.0821 23.7502 22.1038 23.8037C22.1255 23.8572 22.1364 23.9144 22.1359 23.9721L22.1192 26.107C22.1182 26.2229 22.0715 26.3338 21.9892 26.4155C21.9069 26.4972 21.7957 26.543 21.6798 26.543Z" fill="#E53950"/>
<path d="M21.6797 28.7402C22.4078 28.7402 22.998 28.15 22.998 27.4219C22.998 26.6938 22.4078 26.1035 21.6797 26.1035C20.9516 26.1035 20.3613 26.6938 20.3613 27.4219C20.3613 28.15 20.9516 28.7402 21.6797 28.7402Z" fill="#FED402"/>
<path d="M22.4647 26.3628C22.5511 26.6286 22.5508 26.915 22.4639 27.1806C22.3769 27.4462 22.2077 27.6774 21.9809 27.8406C21.754 28.0038 21.4811 28.0907 21.2016 28.0887C20.9221 28.0867 20.6504 27.996 20.4259 27.8295C20.4901 28.0269 20.5999 28.2063 20.7465 28.3532C20.893 28.5 21.0722 28.6103 21.2694 28.6748C21.4666 28.7394 21.6763 28.7565 21.8814 28.7248C22.0864 28.693 22.2811 28.6133 22.4496 28.4921C22.618 28.3709 22.7555 28.2117 22.8508 28.0274C22.9461 27.843 22.9965 27.6388 22.998 27.4313C22.9995 27.2238 22.952 27.0189 22.8593 26.8332C22.7666 26.6475 22.6314 26.4864 22.4647 26.3628Z" fill="#FAC600"/>
<path d="M8.3203 26.543C8.20437 26.5429 8.09314 26.4971 8.01083 26.4155C7.92853 26.3338 7.88183 26.2229 7.88091 26.107L7.86415 23.972C7.8637 23.9143 7.87461 23.857 7.89628 23.8035C7.91794 23.7501 7.94993 23.7014 7.99042 23.6602C8.0309 23.6191 8.07909 23.5863 8.13224 23.5638C8.18538 23.5413 8.24244 23.5295 8.30015 23.5291C8.35785 23.5286 8.41509 23.5395 8.46858 23.5612C8.52207 23.5829 8.57077 23.6148 8.6119 23.6553C8.65303 23.6958 8.68578 23.744 8.70828 23.7972C8.73078 23.8503 8.7426 23.9074 8.74306 23.9651L8.75981 26.1C8.76073 26.2166 8.71532 26.3287 8.63357 26.4118C8.55182 26.4948 8.44042 26.542 8.32388 26.543H8.3203Z" fill="#E53950"/>
<path d="M8.32031 28.7402C9.04842 28.7402 9.63867 28.15 9.63867 27.4219C9.63867 26.6938 9.04842 26.1035 8.32031 26.1035C7.5922 26.1035 7.00195 26.6938 7.00195 27.4219C7.00195 28.15 7.5922 28.7402 8.32031 28.7402Z" fill="#FED402"/>
<path d="M25.5862 23.2576C22.1598 24.0307 18.659 24.4254 15.1465 24.4348C11.9049 24.4458 8.67044 24.1287 5.49263 23.4885C5.11704 23.4129 4.75669 23.335 4.41157 23.257C4.32142 23.238 4.23829 23.1944 4.17134 23.131C4.16269 23.1231 4.15448 23.1147 4.14673 23.1059C4.14673 23.1053 4.14673 23.1053 4.14614 23.1053C4.13127 23.088 4.11775 23.0696 4.10571 23.0502C4.09428 23.0305 4.0841 23.0102 4.07524 22.9893C4.07056 22.9764 4.06646 22.9641 4.06294 22.9512C4.06296 22.9503 4.06276 22.9495 4.06235 22.9488C4.06001 22.9383 4.05767 22.9271 4.05591 22.916C4.05543 22.9145 4.05523 22.9129 4.05532 22.9113C4.05415 22.9031 4.05298 22.8949 4.05239 22.8867C4.05122 22.8693 4.05122 22.8519 4.05239 22.8346C4.05904 22.7495 4.09533 22.6695 4.15493 22.6084L4.20415 22.5557L14.0918 11.9654L14.6145 11.4059C14.6267 11.3928 14.6396 11.3805 14.6532 11.3689C14.752 11.291 14.8742 11.2485 15 11.2485C15.1259 11.2485 15.2481 11.291 15.3469 11.3689C15.3605 11.3805 15.3734 11.3928 15.3856 11.4059L21.5983 18.0598L22.203 18.7072L25.8452 22.6084C26.0614 22.8404 25.9249 23.1809 25.5862 23.2576Z" fill="#46CC8D"/>
<path d="M25.5862 23.2576C22.1598 24.0306 18.659 24.4254 15.1465 24.4348C11.9049 24.4457 8.67044 24.1287 5.49263 23.4885C5.11704 23.4129 4.75669 23.3349 4.41157 23.257C4.32142 23.238 4.23829 23.1944 4.17134 23.131C4.16269 23.1231 4.15448 23.1147 4.14673 23.1058C4.14673 23.1053 4.14673 23.1053 4.14614 23.1053C4.13127 23.088 4.11775 23.0696 4.10571 23.0502C4.09428 23.0305 4.0841 23.0102 4.07524 22.9892C4.07056 22.9764 4.06646 22.964 4.06294 22.9512C4.06296 22.9503 4.06276 22.9495 4.06235 22.9488C4.06001 22.9383 4.05767 22.9271 4.05591 22.916C4.05543 22.9145 4.05523 22.9129 4.05532 22.9113C4.05415 22.9031 4.05298 22.8949 4.05239 22.8867C4.05122 22.8693 4.05122 22.8519 4.05239 22.8346C5.36414 23.107 6.69001 23.3063 8.02388 23.4316C9.51478 23.5724 11.0134 23.6139 12.5098 23.5558C16.0465 23.417 19.8 22.6043 21.7864 22.1139C21.9342 22.0772 22.0699 22.0026 22.18 21.8974C22.2902 21.7922 22.3709 21.66 22.4141 21.514C22.4574 21.368 22.4618 21.2132 22.4268 21.0649C22.3918 20.9167 22.3187 20.7802 22.2147 20.6689L21.0557 19.4267L20.4405 18.7681L14.0918 11.9654L14.6145 11.4058C14.6267 11.3928 14.6396 11.3805 14.6532 11.3689C14.7491 11.2848 14.8724 11.2384 15 11.2384C15.1277 11.2384 15.251 11.2848 15.3469 11.3689C15.3605 11.3805 15.3734 11.3928 15.3856 11.4058L21.5983 18.0598L22.203 18.7072L25.8452 22.6084C26.0614 22.8404 25.9249 23.1808 25.5862 23.2576Z" fill="#00C27A"/>
<path d="M4.05239 22.8346C5.36414 23.1071 6.69001 23.3064 8.02388 23.4317C7.3811 23.4739 6.7354 23.4948 6.08677 23.4944C5.88872 23.4944 5.69067 23.4924 5.49263 23.4885C5.11704 23.4129 4.75669 23.335 4.41157 23.2571C4.32142 23.238 4.23829 23.1944 4.17134 23.1311C4.16269 23.1231 4.15448 23.1147 4.14673 23.1059C4.14673 23.1053 4.14673 23.1053 4.14614 23.1053C4.13127 23.088 4.11775 23.0696 4.10571 23.0502C4.09428 23.0306 4.0841 23.0102 4.07524 22.9893C4.07056 22.9764 4.06646 22.9641 4.06294 22.9512C4.06296 22.9504 4.06276 22.9496 4.06235 22.9489C4.06001 22.9383 4.05767 22.9272 4.05591 22.9161C4.05543 22.9146 4.05523 22.913 4.05532 22.9114C4.05415 22.9032 4.05298 22.895 4.05239 22.8868C4.05122 22.8694 4.05122 22.852 4.05239 22.8346ZM22.203 18.7073C22.1842 18.7252 22.1638 18.7412 22.142 18.7553C21.7846 18.9874 21.4225 19.2112 21.0557 19.4268L20.4405 18.7682C20.8319 18.5415 21.2178 18.3053 21.5983 18.0598L22.203 18.7073Z" fill="#F4D902"/>
<path d="M23.9912 17.6671C21.0812 18.3239 18.1079 18.6591 15.1248 18.6667C12.0572 18.6777 8.99815 18.3422 6.00585 17.6665C5.71933 17.6015 5.60507 17.3121 5.78788 17.1158L9.46933 13.173L14.6725 7.60014C14.76 7.51451 14.8775 7.46655 15 7.46655C15.1224 7.46655 15.24 7.51451 15.3275 7.60014L20.5301 13.173L24.2115 17.1158C24.3955 17.3126 24.2795 17.6021 23.9912 17.6671Z" fill="#46CC8D"/>
<path d="M23.9912 17.6671C21.0806 18.3196 18.1077 18.6548 15.1248 18.6667C12.0572 18.6777 8.99819 18.3422 6.00588 17.6665C5.77796 17.615 5.65901 17.421 5.71233 17.2453C5.72696 17.1967 5.75286 17.1524 5.78792 17.1158L9.46936 13.173L9.8801 12.733L10.4801 12.0902L14.0918 8.22182L14.6725 7.60014C14.76 7.51451 14.8776 7.46655 15 7.46655C15.1225 7.46655 15.24 7.51451 15.3276 7.60014L20.5301 13.173L24.102 16.9986H24.1026L24.2115 17.1158C24.3955 17.3126 24.2795 17.6021 23.9912 17.6671Z" fill="#46CC8D"/>
<path d="M23.9912 17.6671C23.6912 17.7351 23.3774 17.8021 23.0496 17.8681C20.4404 18.3921 17.7862 18.6595 15.1248 18.6667C12.0572 18.6777 8.99819 18.3422 6.00588 17.6665C5.77796 17.615 5.65901 17.421 5.71233 17.2453C7.95196 17.6138 10.2184 17.7953 12.4881 17.7878C14.1586 17.7831 16.2422 17.4468 17.993 17.0888C18.7278 16.9382 19.4033 16.7841 19.9653 16.6488C20.0391 16.6312 20.1106 16.6142 20.1797 16.5972C20.3238 16.562 20.4561 16.4896 20.5635 16.3874C20.671 16.2852 20.7498 16.1566 20.7922 16.0145C20.8345 15.8724 20.839 15.7216 20.805 15.5772C20.7711 15.4329 20.6999 15.2999 20.5987 15.1915L17.8934 12.2941L14.0918 8.22182L14.6725 7.60014C14.76 7.51451 14.8776 7.46655 15 7.46655C15.1225 7.46655 15.24 7.51451 15.3276 7.60014L20.5301 13.173L24.1026 16.9986L24.2115 17.1158C24.3955 17.3126 24.2795 17.6021 23.9912 17.6671Z" fill="#00C27A"/>
<path d="M20.027 15.8789C20.2697 15.8789 20.4664 15.6822 20.4664 15.4395C20.4664 15.1967 20.2697 15 20.027 15C19.7843 15 19.5875 15.1967 19.5875 15.4395C19.5875 15.6822 19.7843 15.8789 20.027 15.8789Z" fill="#0067C5"/>
<path d="M21.2109 22.063C21.4536 22.063 21.6504 21.8662 21.6504 21.6235C21.6504 21.3808 21.4536 21.1841 21.2109 21.1841C20.9682 21.1841 20.7715 21.3808 20.7715 21.6235C20.7715 21.8662 20.9682 22.063 21.2109 22.063Z" fill="#FED402"/>
<path d="M8.58008 21.8505C8.82278 21.8505 9.01953 21.6537 9.01953 21.411C9.01953 21.1683 8.82278 20.9716 8.58008 20.9716C8.33737 20.9716 8.14062 21.1683 8.14062 21.411C8.14062 21.6537 8.33737 21.8505 8.58008 21.8505Z" fill="#0067C5"/>
<path d="M16.6992 23.3813C17.4273 23.3813 18.0176 22.7911 18.0176 22.063C18.0176 21.3349 17.4273 20.7446 16.6992 20.7446C15.9711 20.7446 15.3809 21.3349 15.3809 22.063C15.3809 22.7911 15.9711 23.3813 16.6992 23.3813Z" fill="#00C27A"/>
<path d="M10.6198 15.8052C10.8625 15.8052 11.0592 15.6084 11.0592 15.3657C11.0592 15.123 10.8625 14.9263 10.6198 14.9263C10.377 14.9263 10.1803 15.123 10.1803 15.3657C10.1803 15.6084 10.377 15.8052 10.6198 15.8052Z" fill="#FED402"/>
<path d="M22.203 18.7073C22.1842 18.7252 22.1638 18.7412 22.142 18.7553C21.7846 18.9874 21.4225 19.2112 21.0557 19.4268C19.3941 20.4065 17.6399 21.22 15.8186 21.8555C13.304 22.7324 10.6816 23.2627 8.02388 23.4317C7.3811 23.4739 6.7354 23.4948 6.08677 23.4944C5.88872 23.4944 5.69067 23.4924 5.49263 23.4885C5.11704 23.4129 4.75669 23.335 4.41157 23.2571C4.32142 23.238 4.23829 23.1944 4.17134 23.1311C4.16269 23.1231 4.15448 23.1147 4.14673 23.1059C4.14673 23.1053 4.14673 23.1053 4.14614 23.1053C4.13127 23.088 4.11775 23.0696 4.10571 23.0502C4.09428 23.0306 4.0841 23.0102 4.07524 22.9893C4.07056 22.9764 4.06646 22.9641 4.06294 22.9512C4.06296 22.9504 4.06276 22.9496 4.06235 22.9489C4.06001 22.9383 4.05767 22.9272 4.05591 22.9161C4.05543 22.9146 4.05523 22.913 4.05532 22.9114C4.05415 22.9032 4.05298 22.895 4.05239 22.8868C4.05122 22.8694 4.05122 22.852 4.05239 22.8346C4.05904 22.7495 4.09533 22.6695 4.15493 22.6084L4.20415 22.5557C8.10181 22.8012 11.9116 22.2868 15.5292 21.0252C17.2342 20.4306 18.8788 19.6748 20.4405 18.7682C20.8319 18.5415 21.2178 18.3053 21.5983 18.0598L22.203 18.7073Z" fill="#FED402"/>
<path d="M22.2029 18.7073C22.1842 18.7252 22.1638 18.7412 22.142 18.7553C21.7846 18.9874 21.4225 19.2112 21.0557 19.4268L20.4404 18.7682C20.8318 18.5415 21.2178 18.3053 21.5982 18.0598L22.2029 18.7073Z" fill="#FAC600"/>
<path d="M8.02388 23.4317C7.3811 23.4739 6.7354 23.4948 6.08677 23.4944C5.88872 23.4944 5.69067 23.4924 5.49263 23.4885C5.11704 23.4129 4.75669 23.335 4.41157 23.2571C4.32142 23.238 4.23829 23.1944 4.17134 23.1311C4.16269 23.1231 4.15448 23.1147 4.14673 23.1059C4.14673 23.1053 4.14673 23.1053 4.14614 23.1053C4.13127 23.088 4.11775 23.0696 4.10571 23.0502C4.09428 23.0306 4.0841 23.0102 4.07524 22.9893C4.07056 22.9764 4.06646 22.9641 4.06294 22.9512C4.06296 22.9504 4.06276 22.9496 4.06235 22.9489C4.06001 22.9383 4.05767 22.9272 4.05591 22.916C4.05543 22.9145 4.05523 22.9129 4.05532 22.9114C4.05415 22.9031 4.05298 22.8949 4.05239 22.8867C4.05122 22.8694 4.05122 22.852 4.05239 22.8346C5.36414 23.107 6.69001 23.3064 8.02388 23.4317Z" fill="#F4D902"/>
<path d="M23.9913 17.6672C23.9209 17.683 23.8495 17.6988 23.778 17.7146C23.7059 17.7304 23.6333 17.7463 23.56 17.7621C23.5038 17.7744 23.4469 17.7861 23.3895 17.7984C23.3573 17.8054 23.325 17.8119 23.2928 17.8183C23.2125 17.8353 23.1317 17.8517 23.0497 17.8681H23.0491C21.3384 17.8134 19.6407 17.5517 17.993 17.0888C17.1634 16.8558 16.3488 16.5722 15.5538 16.2398C13.4955 15.3793 11.5855 14.2001 9.89419 12.7453L9.88013 12.733L10.4801 12.0902C12.0981 13.4797 13.9245 14.6062 15.8924 15.4283C17.2035 15.9769 18.5686 16.386 19.9653 16.6488C21.3289 16.9043 22.7148 17.0215 24.102 16.9986H24.1026L24.2116 17.1158C24.3956 17.3127 24.2795 17.6021 23.9913 17.6672Z" fill="#FED402"/>
<path d="M24.2115 17.1158L24.1025 16.9986H24.1019C22.7147 17.0215 21.3288 16.9043 19.9652 16.6488C19.4033 16.7842 18.7277 16.9383 17.9929 17.0888C19.6406 17.5517 21.3383 17.8134 23.049 17.8681H23.0496C23.1316 17.8517 23.2125 17.8353 23.2927 17.8183C23.313 17.8142 23.3333 17.81 23.3537 17.8058L23.4484 17.7859C23.4857 17.778 23.5231 17.7701 23.5599 17.7621C23.6332 17.7463 23.7058 17.7304 23.7779 17.7146C23.8494 17.6988 23.9209 17.683 23.9912 17.6672C24.2794 17.6021 24.3955 17.3127 24.2115 17.1158Z" fill="#FAC600"/>
<path d="M7.87678 11.5823C7.86007 11.6 7.84605 11.6202 7.83518 11.642C7.8317 11.6485 7.82858 11.6551 7.82581 11.6619C7.82346 11.669 7.82053 11.676 7.81877 11.683C7.77893 11.8184 7.87092 11.9666 8.0467 12.0065C8.31448 12.0674 8.5967 12.1272 8.89338 12.1858C9.53225 12.1158 10.1664 12.0078 10.7924 11.8623C9.74124 11.8102 8.76565 11.7094 7.87678 11.5823ZM16.8364 7.86506L17.4369 8.50842C17.7721 8.22073 18.0951 7.91819 18.4061 7.60081L17.8067 6.95862C17.8015 6.96279 17.7966 6.96729 17.792 6.97209C17.4862 7.2844 17.1676 7.58206 16.8364 7.86506Z" fill="#F4D902"/>
<path d="M16.191 22.9419C16.9191 22.9419 17.5094 22.3516 17.5094 21.6235C17.5094 20.8954 16.9191 20.3052 16.191 20.3052C15.4629 20.3052 14.8727 20.8954 14.8727 21.6235C14.8727 22.3516 15.4629 22.9419 16.191 22.9419Z" fill="#E53950"/>
<path d="M11.3702 20.5049C12.0983 20.5049 12.6886 19.9146 12.6886 19.1865C12.6886 18.4584 12.0983 17.8682 11.3702 17.8682C10.6421 17.8682 10.0519 18.4584 10.0519 19.1865C10.0519 19.9146 10.6421 20.5049 11.3702 20.5049Z" fill="#00C27A"/>
<path d="M10.9226 19.9856C11.6507 19.9856 12.241 19.3953 12.241 18.6672C12.241 17.9391 11.6507 17.3489 10.9226 17.3489C10.1945 17.3489 9.60425 17.9391 9.60425 18.6672C9.60425 19.3953 10.1945 19.9856 10.9226 19.9856Z" fill="#E53950"/>
<path d="M9.10536 26.3628C9.19177 26.6286 9.19147 26.915 9.10449 27.1806C9.01752 27.4462 8.84837 27.6774 8.62148 27.8406C8.39459 28.0038 8.12169 28.0907 7.8422 28.0887C7.5627 28.0867 7.29107 27.996 7.06653 27.8295C7.13068 28.0269 7.24052 28.2063 7.38709 28.3532C7.53367 28.5 7.71285 28.6103 7.91006 28.6748C8.10727 28.7394 8.31693 28.7565 8.522 28.7248C8.72707 28.693 8.92175 28.6133 9.0902 28.4921C9.25865 28.3709 9.39611 28.2117 9.49141 28.0274C9.58671 27.843 9.63715 27.6388 9.63863 27.4313C9.6401 27.2238 9.59258 27.0189 9.49991 26.8332C9.40725 26.6475 9.27206 26.4864 9.10536 26.3628Z" fill="#FAC600"/>
<path d="M21.9516 12.007C19.7016 12.5149 17.4027 12.774 15.0961 12.7798C13.014 12.7869 10.9363 12.5879 8.89338 12.1857C8.5969 12.1271 8.31467 12.0673 8.0467 12.0064C7.87092 11.9666 7.77893 11.8183 7.81877 11.683C7.82053 11.6759 7.82346 11.6689 7.82581 11.6619C7.82858 11.6551 7.8317 11.6484 7.83518 11.642C7.84605 11.6201 7.86007 11.6 7.87678 11.5822L7.87795 11.581L8.07014 11.3754L14.0918 4.92536L14.7469 4.22399C14.8145 4.1578 14.9054 4.12073 15 4.12073C15.0947 4.12073 15.1855 4.1578 15.2532 4.22399L17.8067 6.95856L18.4061 7.60075L22.1221 11.581C22.2639 11.7328 22.1742 11.9566 21.9516 12.007Z" fill="#46CC8D"/>
<path d="M21.9516 12.007C19.7016 12.5149 17.4027 12.7741 15.0961 12.7799C13.014 12.7869 10.9363 12.5879 8.89338 12.1857C8.5969 12.1271 8.31467 12.0674 8.0467 12.0064C7.87092 11.9666 7.77893 11.8183 7.81877 11.683C7.82053 11.676 7.82346 11.6689 7.82581 11.6619C7.82858 11.6551 7.8317 11.6484 7.83518 11.642C7.84605 11.6201 7.86007 11.6 7.87678 11.5822C9.3946 11.7992 10.9262 11.9057 12.4594 11.901C14.1352 11.8963 16.3494 11.4597 17.8401 11.1152C18.0093 11.0762 18.1653 10.9933 18.2923 10.8748C18.4194 10.7564 18.513 10.6065 18.5638 10.4404C18.6145 10.2743 18.6207 10.0978 18.5816 9.92854C18.5425 9.75931 18.4595 9.60335 18.341 9.47635L17.4369 8.50838L16.8364 7.86502L14.0918 4.92537L14.7469 4.224C14.7793 4.18933 14.8185 4.16169 14.8621 4.14279C14.9056 4.12389 14.9526 4.11414 15 4.11414C15.0475 4.11414 15.0945 4.12389 15.138 4.14279C15.1815 4.16169 15.2207 4.18933 15.2532 4.224L17.8067 6.95857L18.4061 7.60076L22.1221 11.581C22.2639 11.7328 22.1742 11.9566 21.9516 12.007Z" fill="#00C27A"/>
<path d="M18.1058 10.0997C18.3485 10.0997 18.5453 9.90298 18.5453 9.66028C18.5453 9.41758 18.3485 9.22083 18.1058 9.22083C17.8631 9.22083 17.6664 9.41758 17.6664 9.66028C17.6664 9.90298 17.8631 10.0997 18.1058 10.0997Z" fill="#FED402"/>
<path d="M13.7402 8.45056C13.9829 8.45056 14.1797 8.25381 14.1797 8.01111C14.1797 7.76841 13.9829 7.57166 13.7402 7.57166C13.4975 7.57166 13.3008 7.76841 13.3008 8.01111C13.3008 8.25381 13.4975 8.45056 13.7402 8.45056Z" fill="#0067C5"/>
<path d="M18.4061 7.60081C18.0955 7.9178 17.7725 8.22034 17.4369 8.50842C16.7312 9.11618 15.9721 9.659 15.1688 10.1303C13.8056 10.9249 12.3301 11.5088 10.7924 11.8623C10.1664 12.0078 9.53225 12.1158 8.89338 12.1858C8.5969 12.1272 8.31467 12.0674 8.0467 12.0065C7.87092 11.9666 7.77893 11.8184 7.81877 11.683C7.82053 11.676 7.82346 11.669 7.82581 11.6619C7.82858 11.6551 7.8317 11.6485 7.83518 11.642C7.84605 11.6202 7.86007 11.6 7.87678 11.5823L7.87795 11.5811L8.07014 11.3754C10.4426 11.226 12.7377 10.5358 14.7246 9.37209C15.472 8.93354 16.1787 8.4292 16.8364 7.86506C17.1668 7.58264 17.4854 7.28499 17.792 6.97209C17.7966 6.96729 17.8015 6.96279 17.8067 6.95862L18.4061 7.60081Z" fill="#FED402"/>
<path d="M7.87678 11.5823C7.86007 11.6 7.84605 11.6202 7.83518 11.642C7.8317 11.6485 7.82858 11.6551 7.82581 11.6619C7.82346 11.669 7.82053 11.676 7.81877 11.683C7.77893 11.8184 7.87092 11.9666 8.0467 12.0065C8.31448 12.0674 8.5967 12.1272 8.89338 12.1858C9.53225 12.1158 10.1664 12.0078 10.7924 11.8623C9.74124 11.8102 8.76565 11.7094 7.87678 11.5823ZM16.8364 7.86506L17.4369 8.50842C17.7721 8.22073 18.0951 7.91819 18.4061 7.60081L17.8067 6.95862C17.8015 6.96279 17.7966 6.96729 17.792 6.97209C17.4862 7.2844 17.1676 7.58206 16.8364 7.86506Z" fill="#FAC600"/>
<path d="M17.6212 14.8225C18.3493 14.8225 18.9396 14.2323 18.9396 13.5042C18.9396 12.776 18.3493 12.1858 17.6212 12.1858C16.8931 12.1858 16.3029 12.776 16.3029 13.5042C16.3029 14.2323 16.8931 14.8225 17.6212 14.8225Z" fill="#00C27A"/>
<path d="M17.2303 14.2177C17.9585 14.2177 18.5487 13.6274 18.5487 12.8993C18.5487 12.1712 17.9585 11.5809 17.2303 11.5809C16.5022 11.5809 15.912 12.1712 15.912 12.8993C15.912 13.6274 16.5022 14.2177 17.2303 14.2177Z" fill="#E53950"/>
<path d="M15.2112 0.570769L15.7904 1.7444C15.8073 1.77865 15.8323 1.80827 15.8632 1.83072C15.8941 1.85316 15.93 1.86776 15.9678 1.87325L17.2629 2.06145C17.3064 2.06777 17.3473 2.08613 17.3809 2.11446C17.4145 2.1428 17.4395 2.17996 17.4531 2.22176C17.4667 2.26357 17.4683 2.30833 17.4577 2.35101C17.4472 2.39368 17.4249 2.43255 17.3935 2.46323L16.4563 3.37671C16.429 3.40336 16.4085 3.43628 16.3967 3.4726C16.3849 3.50893 16.3821 3.54759 16.3885 3.58524L16.6098 4.87513C16.6172 4.91845 16.6124 4.96298 16.5958 5.0037C16.5793 5.04442 16.5516 5.07969 16.5161 5.10552C16.4805 5.13136 16.4384 5.14673 16.3946 5.1499C16.3508 5.15306 16.3069 5.1439 16.268 5.12345L15.1096 4.51448C15.0758 4.4967 15.0382 4.48741 15 4.48741C14.9618 4.48741 14.9242 4.4967 14.8903 4.51448L13.732 5.12345C13.6931 5.1439 13.6493 5.15306 13.6054 5.1499C13.5616 5.14673 13.5195 5.13136 13.4839 5.10552C13.4484 5.07969 13.4207 5.04442 13.4042 5.0037C13.3876 4.96298 13.3828 4.91845 13.3902 4.87513L13.6115 3.58524C13.6179 3.5476 13.6151 3.50895 13.6033 3.47264C13.5915 3.43632 13.571 3.40342 13.5437 3.37677L12.6065 2.46323C12.5751 2.43255 12.5528 2.39368 12.5423 2.35101C12.5317 2.30833 12.5333 2.26357 12.5469 2.22176C12.5605 2.17996 12.5855 2.1428 12.6191 2.11446C12.6527 2.08613 12.6936 2.06777 12.7371 2.06145L14.0322 1.87325C14.07 1.86775 14.1059 1.85315 14.1368 1.83069C14.1677 1.80824 14.1927 1.7786 14.2096 1.74434L14.7888 0.570769C14.8083 0.531353 14.8383 0.498164 14.8757 0.474958C14.913 0.451752 14.9561 0.439453 15 0.439453C15.044 0.439453 15.0871 0.451752 15.1244 0.474958C15.1617 0.498164 15.1918 0.531353 15.2112 0.570769Z" fill="#FAC600"/>
<path d="M16.4242 20.3262C16.6016 20.5326 16.7106 20.789 16.7364 21.0599C16.7622 21.3308 16.7035 21.6031 16.5683 21.8394C16.4331 22.0756 16.228 22.2641 15.9814 22.3791C15.7347 22.4941 15.4584 22.5299 15.1906 22.4815C15.328 22.6419 15.5019 22.7668 15.6977 22.8459C15.8935 22.925 16.1054 22.9559 16.3156 22.9359C16.5259 22.916 16.7282 22.8459 16.9057 22.7315C17.0831 22.6171 17.2305 22.4617 17.3354 22.2784C17.4403 22.0952 17.4996 21.8894 17.5084 21.6784C17.5172 21.4674 17.4752 21.2575 17.3859 21.0661C17.2965 20.8748 17.1626 20.7077 16.9952 20.5789C16.8279 20.4502 16.632 20.3635 16.4242 20.3262ZM17.46 11.5914C17.6374 11.7979 17.7464 12.0542 17.7722 12.3251C17.798 12.5961 17.7393 12.8684 17.6041 13.1046C17.4689 13.3408 17.2639 13.5293 17.0172 13.6443C16.7705 13.7593 16.4943 13.7951 16.2265 13.7468C16.3639 13.9071 16.5378 14.0321 16.7336 14.1112C16.9294 14.1902 17.1413 14.2211 17.3515 14.2012C17.5618 14.1813 17.7641 14.1112 17.9416 13.9968C18.1191 13.8823 18.2664 13.7269 18.3713 13.5437C18.4762 13.3604 18.5355 13.1546 18.5443 12.9436C18.5531 12.7327 18.511 12.5227 18.4217 12.3313C18.3324 12.14 18.1984 11.9729 18.0311 11.8442C17.8637 11.7154 17.6679 11.6287 17.46 11.5914ZM11.1557 17.3698C11.333 17.5763 11.4421 17.8326 11.4679 18.1035C11.4937 18.3745 11.4349 18.6468 11.2998 18.883C11.1646 19.1192 10.9595 19.3077 10.7129 19.4227C10.4662 19.5377 10.19 19.5735 9.92212 19.5252C10.0595 19.6855 10.2335 19.8105 10.4293 19.8896C10.6251 19.9686 10.837 19.9995 11.0472 19.9796C11.2574 19.9597 11.4598 19.8896 11.6373 19.7752C11.8147 19.6607 11.9621 19.5053 12.067 19.3221C12.1719 19.1388 12.2312 18.933 12.24 18.722C12.2487 18.5111 12.2067 18.3011 12.1174 18.1097C12.0281 17.9184 11.8941 17.7513 11.7267 17.6226C11.5594 17.4938 11.3635 17.4071 11.1557 17.3698Z" fill="#CA2E43"/>
<path d="M13.491 4.28755C13.5551 4.29264 13.6197 4.29598 13.6851 4.29598C14.3248 4.29592 14.9387 4.04392 15.394 3.59456C15.8492 3.14519 16.1092 2.53461 16.1176 1.89499L15.9678 1.87325C15.93 1.86775 15.8941 1.85315 15.8632 1.83069C15.8323 1.80824 15.8074 1.7786 15.7905 1.74434L15.2113 0.570769C15.1918 0.531353 15.1617 0.498164 15.1244 0.474958C15.0871 0.451752 15.044 0.439453 15 0.439453C14.9561 0.439453 14.913 0.451752 14.8757 0.474958C14.8383 0.498164 14.8083 0.531353 14.7888 0.570769L14.2096 1.7444C14.1927 1.77865 14.1677 1.80827 14.1368 1.83072C14.1059 1.85316 14.07 1.86776 14.0322 1.87325L12.7371 2.06145C12.6936 2.06777 12.6527 2.08613 12.6191 2.11446C12.5855 2.1428 12.5605 2.17996 12.5469 2.22176C12.5333 2.26357 12.5317 2.30833 12.5423 2.35101C12.5528 2.39368 12.5751 2.43255 12.6065 2.46323L13.5437 3.37671C13.5711 3.40336 13.5915 3.43628 13.6033 3.4726C13.6151 3.50893 13.6179 3.54759 13.6115 3.58524L13.491 4.28755Z" fill="#FED402"/>
</svg>
