<svg width="30" height="30" viewBox="0 0 30 30" fill="none" xmlns="http://www.w3.org/2000/svg">
<g clip-path="url(#clip0_46_42)">
<mask id="mask0_46_42" style="mask-type:luminance" maskUnits="userSpaceOnUse" x="0" y="0" width="30" height="30">
<path d="M0 -1.07288e-06H30V30H0V-1.07288e-06Z" fill="white"/>
</mask>
<g mask="url(#mask0_46_42)">
<path d="M4.7368 17.3684C4.7368 19.1124 3.85338 20.5263 2.76311 20.5263C1.67285 20.5263 0.789429 19.1124 0.789429 17.3684C0.789429 15.6245 1.67285 14.2105 2.76311 14.2105C3.85338 14.2105 4.7368 15.6245 4.7368 17.3684Z" fill="#D79E84"/>
<path d="M3.15784 15.4437C3.15784 8.71264 7.39968 3.2558 12.6315 3.2558C17.8634 3.2558 22.1052 8.71264 22.1052 15.4437C22.1052 22.174 17.8634 27.6316 12.6315 27.6316C7.39968 27.6316 3.15784 22.174 3.15784 15.4437Z" fill="#D79E84"/>
<path d="M16.5789 0.789452C16.3824 0.789452 16.2016 0.794979 16.016 0.798927C15.9395 0.797348 15.866 0.789452 15.7895 0.789452C7.89472 0.789452 2.36841 4.40682 2.36841 7.89471C2.36841 11.3826 7.39972 11.0526 12.6316 11.0526C16.1384 11.0526 18.6695 11.0526 20.4995 10.9847L20.5263 11.0526L25.2631 22.8947H26.8421C26.8421 22.8947 27.1129 20.4829 27.6316 17.3684C28.421 12.6316 28.0524 0.789452 16.5789 0.789452Z" fill="#DD2E44"/>
<path d="M24.4736 17.3684C24.4736 19.1124 23.5902 20.5263 22.4999 20.5263C21.4097 20.5263 20.5262 19.1124 20.5262 17.3684C20.5262 15.6245 21.4097 14.2105 22.4999 14.2105C23.5902 14.2105 24.4736 15.6245 24.4736 17.3684Z" fill="#D79E84"/>
<path d="M8.68413 17.3684C8.47475 17.3684 8.27394 17.2852 8.12588 17.1372C7.97783 16.9891 7.89465 16.7883 7.89465 16.5789V15C7.89465 14.7906 7.97783 14.5898 8.12588 14.4417C8.27394 14.2937 8.47475 14.2105 8.68413 14.2105C8.89351 14.2105 9.09431 14.2937 9.24237 14.4417C9.39042 14.5898 9.4736 14.7906 9.4736 15V16.5789C9.4736 16.7883 9.39042 16.9891 9.24237 17.1372C9.09431 17.2852 8.89351 17.3684 8.68413 17.3684ZM16.5789 17.3684C16.3695 17.3684 16.1687 17.2852 16.0206 17.1372C15.8726 16.9891 15.7894 16.7883 15.7894 16.5789V15C15.7894 14.7906 15.8726 14.5898 16.0206 14.4417C16.1687 14.2937 16.3695 14.2105 16.5789 14.2105C16.7882 14.2105 16.9891 14.2937 17.1371 14.4417C17.2852 14.5898 17.3683 14.7906 17.3683 15V16.5789C17.3683 16.7883 17.2852 16.9891 17.1371 17.1372C16.9891 17.2852 16.7882 17.3684 16.5789 17.3684Z" fill="#662113"/>
<path d="M13.421 21.3158H11.8421C11.6327 21.3158 11.4319 21.2326 11.2838 21.0846C11.1358 20.9365 11.0526 20.7357 11.0526 20.5263C11.0526 20.3169 11.1358 20.1161 11.2838 19.9681C11.4319 19.82 11.6327 19.7368 11.8421 19.7368H13.421C13.6304 19.7368 13.8312 19.82 13.9793 19.9681C14.1273 20.1161 14.2105 20.3169 14.2105 20.5263C14.2105 20.7357 14.1273 20.9365 13.9793 21.0846C13.8312 21.2326 13.6304 21.3158 13.421 21.3158Z" fill="#B7755E"/>
<path d="M22.1052 20.5263C22.1052 18.9474 20.2949 19.9681 19.7368 20.5263C18.9473 21.3158 17.3684 22.8947 15.7894 22.1052C13.5568 20.9889 12.6315 21.3158 12.6315 21.3158C12.6315 21.3158 11.707 20.9889 9.47363 22.1052C7.89468 22.8947 6.31573 21.3158 5.52626 20.5263C4.9681 19.9681 3.15784 18.9474 3.15784 20.5263C3.15784 22.1052 3.94731 22.1052 3.94731 22.1052C3.15784 23.6842 4.73678 24.4737 4.73678 24.4737C4.73678 26.8421 7.10521 26.8421 7.10521 26.8421C7.10521 29.2105 10.2631 28.421 10.2631 28.421C11.0526 29.2105 12.6315 29.2105 12.6315 29.2105C12.6315 29.2105 14.2105 29.2105 14.9999 28.421C14.9999 28.421 18.1578 29.2105 18.1578 26.8421C18.1578 26.8421 20.5263 26.8421 20.5263 24.4737C20.5263 24.4737 22.1052 23.6842 21.3157 22.1052C21.3157 22.1052 22.1052 22.1052 22.1052 20.5263Z" fill="#E6E7E8"/>
<path d="M12.6316 22.8947C18.1579 22.8947 15.7895 24.4737 12.6316 24.4737C9.47369 24.4737 7.10527 22.8947 12.6316 22.8947Z" fill="#D99E82"/>
<path d="M1.57886 11.8421C1.57886 10.0982 2.28623 8.68421 3.1578 8.68421C4.02938 8.68421 4.73675 10.0982 4.73675 11.8421C4.73675 13.5861 4.02938 15 3.1578 15C2.28623 15 1.57886 13.5861 1.57886 11.8421ZM19.7368 11.8421C19.7368 10.0982 20.4441 8.68421 21.3157 8.68421C22.1873 8.68421 22.8946 10.0982 22.8946 11.8421C22.8946 13.5861 22.1873 15 21.3157 15C20.4441 15 19.7368 13.5861 19.7368 11.8421Z" fill="#D1D3D4"/>
<path d="M22.8947 23.6842C22.8947 24.5217 23.2274 25.325 23.8196 25.9172C24.4118 26.5094 25.2151 26.8421 26.0526 26.8421C26.8901 26.8421 27.6933 26.5094 28.2856 25.9172C28.8778 25.325 29.2105 24.5217 29.2105 23.6842C29.2105 22.8467 28.8778 22.0435 28.2856 21.4512C27.6933 20.859 26.8901 20.5263 26.0526 20.5263C25.2151 20.5263 24.4118 20.859 23.8196 21.4512C23.2274 22.0435 22.8947 22.8467 22.8947 23.6842ZM23.6842 10.2632C23.6842 10.6819 23.5178 11.0835 23.2217 11.3796C22.9256 11.6757 22.524 11.8421 22.1052 11.8421H2.36838C1.94961 11.8421 1.548 11.6757 1.25189 11.3796C0.955782 11.0835 0.789429 10.6819 0.789429 10.2632V9.47368C0.789429 9.05492 0.955782 8.65331 1.25189 8.3572C1.548 8.06109 1.94961 7.89473 2.36838 7.89473H22.1052C22.524 7.89473 22.9256 8.06109 23.2217 8.3572C23.5178 8.65331 23.6842 9.05492 23.6842 9.47368V10.2632Z" fill="#F1F2F2"/>
</g>
</g>
<defs>
<clipPath id="clip0_46_42">
<rect width="30" height="30" fill="white"/>
</clipPath>
</defs>
</svg>
