<svg width="51" height="51" viewBox="0 0 51 51" fill="none" xmlns="http://www.w3.org/2000/svg">
<path d="M34.3833 32.1878L32.6341 30.4214C32.4882 30.2765 32.3151 30.1619 32.1248 30.084C31.9344 30.0062 31.7306 29.9667 31.525 29.9678C31.3193 29.9665 31.1155 30.0058 30.9251 30.0835C30.7347 30.1611 30.5615 30.2756 30.4154 30.4204C30.2689 30.5656 30.1525 30.7383 30.0731 30.9287C29.9937 31.1191 29.9528 31.3233 29.9527 31.5295C29.9526 31.7358 29.9933 31.94 30.0726 32.1305C30.1518 32.3209 30.268 32.4938 30.4144 32.6391L32.1792 34.3899L29.6948 34.3888C29.2804 34.3886 28.8829 34.553 28.5897 34.8459C28.2966 35.1388 28.1318 35.5362 28.1316 35.9506C28.1314 36.365 28.2958 36.7625 28.5887 37.0556C28.8816 37.3488 29.2789 37.5136 29.6933 37.5138L32.1777 37.5149L30.4113 39.2641C30.2655 39.4097 30.1499 39.5826 30.0709 39.7729C29.992 39.9633 29.9513 40.1672 29.9512 40.3733C29.9511 40.5793 29.9916 40.7833 30.0704 40.9737C30.1491 41.1641 30.2646 41.3371 30.4102 41.4829C30.5559 41.6286 30.7288 41.7443 30.9191 41.8232C31.1094 41.9021 31.3134 41.9428 31.5194 41.9429C31.7254 41.943 31.9295 41.9025 32.1198 41.8238C32.3102 41.745 32.4832 41.6295 32.629 41.4839L34.3798 39.7191L34.3787 42.2035C34.3785 42.6179 34.5429 43.0154 34.8358 43.3085C35.1287 43.6017 35.526 43.7665 35.9404 43.7667C36.3548 43.7669 36.7523 43.6024 37.0455 43.3096C37.3387 43.0167 37.5035 42.6193 37.5037 42.2049L37.5048 39.7205L39.254 41.487C39.5481 41.7813 39.9471 41.9468 40.3632 41.947C40.7792 41.9472 41.1784 41.7821 41.4727 41.488C41.7671 41.1939 41.9326 40.7949 41.9328 40.3789C41.933 39.9628 41.7679 39.5636 41.4738 39.2693L39.709 37.5184L42.1933 37.5196C42.6077 37.5198 43.0052 37.3554 43.2984 37.0625C43.5916 36.7696 43.7564 36.3722 43.7566 35.9578C43.7568 35.5434 43.5923 35.1459 43.2994 34.8528C43.0065 34.5596 42.6092 34.3948 42.1948 34.3946L39.7104 34.3934L41.4769 32.6443C41.6234 32.4991 41.7397 32.3263 41.8191 32.136C41.8985 31.9456 41.9395 31.7414 41.9396 31.5351C41.9397 31.3288 41.8989 31.1246 41.8197 30.9341C41.7404 30.7437 41.6243 30.5708 41.4779 30.4255C41.332 30.2806 41.1589 30.166 40.9685 30.0881C40.7782 30.0103 40.5744 29.9708 40.3687 29.9719C40.1631 29.9706 39.9592 30.0099 39.7688 30.0876C39.5784 30.1652 39.4052 30.2797 39.2591 30.4245L37.5083 32.1893L37.5095 29.7049C37.5097 29.2905 37.3452 28.893 37.0523 28.5999C36.7594 28.3067 36.3621 28.1419 35.9477 28.1417C35.5333 28.1415 35.1358 28.3059 34.8426 28.5988C34.5495 28.8917 34.3847 29.2891 34.3845 29.7035L34.3833 32.1878ZM7.82125 31.2536L10.3056 31.2548L8.53918 33.0039C8.24482 33.298 8.07934 33.697 8.07915 34.1131C8.07896 34.5292 8.24406 34.9283 8.53815 35.2227C8.83224 35.5171 9.23122 35.6825 9.64731 35.6827C10.0634 35.6829 10.4625 35.5178 10.7569 35.2237L12.5077 33.4589L12.5066 35.9433C12.5064 36.3577 12.6708 36.7552 12.9637 37.0484C13.2566 37.3415 13.6539 37.5063 14.0683 37.5065C14.4827 37.5067 14.8802 37.3423 15.1734 37.0494C15.4666 36.7565 15.6314 36.3591 15.6316 35.9447L15.6327 33.4604L17.3819 35.2268C17.676 35.5212 18.075 35.6866 18.4911 35.6868C18.9072 35.687 19.3063 35.5219 19.6007 35.2278C19.895 34.9338 20.0605 34.5348 20.0607 34.1187C20.0609 33.7026 19.8958 33.3035 19.6017 33.0091L17.8369 31.2583L20.3212 31.2594C20.7356 31.2596 21.1332 31.0952 21.4263 30.8023C21.7195 30.5094 21.8843 30.1121 21.8845 29.6977C21.8847 29.2833 21.7202 28.8857 21.4273 28.5926C21.1345 28.2994 20.7371 28.1346 20.3227 28.1344L17.8383 28.1333L19.6048 26.3841C19.7513 26.2389 19.8676 26.0661 19.947 25.8758C20.0264 25.6854 20.0674 25.4812 20.0675 25.2749C20.0676 25.0687 20.0268 24.8644 19.9476 24.674C19.8683 24.4835 19.7522 24.3107 19.6058 24.1653C19.4599 24.0205 19.2868 23.9058 19.0964 23.828C18.9061 23.7501 18.7023 23.7106 18.4966 23.7117C18.291 23.7104 18.0871 23.7497 17.8967 23.8274C17.7063 23.9051 17.5331 24.0196 17.387 24.1643L15.6362 25.9291L15.6374 23.4447C15.6376 23.0303 15.4731 22.6328 15.1802 22.3397C14.8874 22.0465 14.49 21.8817 14.0756 21.8815C13.6612 21.8813 13.2637 22.0458 12.9705 22.3387C12.6774 22.6315 12.5126 23.0289 12.5124 23.4433L12.5112 25.9277L10.762 24.1612C10.6161 24.0163 10.443 23.9017 10.2527 23.8238C10.0623 23.746 9.85852 23.7065 9.65288 23.7076C9.44725 23.7063 9.24338 23.7456 9.05298 23.8233C8.86257 23.901 8.68936 24.0154 8.5433 24.1602C8.39678 24.3054 8.28046 24.4781 8.20104 24.6685C8.12163 24.8589 8.08069 25.0631 8.0806 25.2694C8.0805 25.4756 8.12125 25.6799 8.20048 25.8703C8.27972 26.0608 8.39588 26.2336 8.54227 26.3789L10.3071 28.1298L7.8227 28.1286C7.4083 28.1284 7.0108 28.2929 6.71763 28.5857C6.42447 28.8786 6.25967 29.276 6.25947 29.6904C6.25928 30.1048 6.42372 30.5023 6.71661 30.7955C7.0095 31.0886 7.40685 31.2534 7.82125 31.2536ZM20.3285 15.6344L22.8129 15.6356L21.0464 17.3848C20.7521 17.6789 20.5866 18.0778 20.5864 18.4939C20.5862 18.91 20.7513 19.3092 21.0454 19.6035C21.3395 19.8979 21.7385 20.0634 22.1546 20.0635C22.5707 20.0637 22.9698 19.8986 23.2642 19.6045L25.015 17.8397L25.0138 20.3241C25.0136 20.7385 25.1781 21.136 25.471 21.4292C25.7639 21.7223 26.1612 21.8871 26.5756 21.8873C26.99 21.8875 27.3875 21.7231 27.6807 21.4302C27.9738 21.1373 28.1386 20.74 28.1388 20.3256L28.14 17.8412L29.8892 19.6076C30.1833 19.902 30.5822 20.0675 30.9983 20.0677C31.4144 20.0679 31.8136 19.9027 32.1079 19.6087C32.4023 19.3146 32.5678 18.9156 32.568 18.4995C32.5681 18.0834 32.403 17.6843 32.1089 17.3899L30.3441 15.6391L32.8285 15.6402C33.2429 15.6404 33.6404 15.476 33.9336 15.1831C34.2267 14.8902 34.3915 14.4929 34.3917 14.0785C34.3919 13.6641 34.2275 13.2666 33.9346 12.9734C33.6417 12.6802 33.2444 12.5154 32.83 12.5152L30.3456 12.5141L32.112 10.7649C32.2585 10.6197 32.3749 10.447 32.4543 10.2566C32.5337 10.0662 32.5746 9.86202 32.5747 9.65575C32.5748 9.44948 32.5341 9.24523 32.4548 9.05479C32.3756 8.86435 32.2594 8.69148 32.1131 8.54616C31.9671 8.40127 31.794 8.28662 31.6037 8.20878C31.4134 8.13093 31.2095 8.09142 31.0039 8.09252C30.7983 8.09123 30.5944 8.13055 30.404 8.20822C30.2136 8.28589 30.0404 8.40038 29.8943 8.54513L28.1435 10.3099L28.1446 7.82556C28.1448 7.41116 27.9804 7.01366 27.6875 6.72049C27.3946 6.42733 26.9973 6.26253 26.5829 6.26233C26.1685 6.26214 25.771 6.42658 25.4778 6.71947C25.1846 7.01236 25.0198 7.40971 25.0196 7.82411L25.0185 10.3085L23.2693 8.54204C23.1234 8.39716 22.9503 8.28251 22.76 8.20466C22.5696 8.12682 22.3658 8.08731 22.1601 8.0884C21.9545 8.08712 21.7506 8.12644 21.5602 8.20411C21.3698 8.28177 21.1966 8.39627 21.0506 8.54101C20.904 8.6862 20.7877 8.85896 20.7083 9.04933C20.6289 9.23969 20.588 9.4439 20.5879 9.65017C20.5878 9.85644 20.6285 10.0607 20.7077 10.2511C20.787 10.4416 20.9031 10.6144 21.0495 10.7598L22.8143 12.5106L20.33 12.5094C19.9156 12.5092 19.5181 12.6737 19.2249 12.9666C18.9317 13.2594 18.7669 13.6568 18.7667 14.0712C18.7665 14.4856 18.931 14.8831 19.2239 15.1763C19.5168 15.4694 19.9141 15.6342 20.3285 15.6344Z" fill="#00D1FF"/>
</svg>
