<svg width="30" height="30" viewBox="0 0 30 30" fill="none" xmlns="http://www.w3.org/2000/svg">
<g clip-path="url(#clip0_46_38)">
<path d="M29.2399 14.1443H26.746L27.864 13.0339C28.161 12.739 28.161 12.2609 27.8641 11.9662C27.5673 11.6713 27.0859 11.6712 26.7892 11.9661L24.596 14.1443H20.91L22.5501 12.3934C22.836 12.0882 22.8186 11.6105 22.5112 11.3263C22.3853 11.2099 22.23 11.1449 22.0709 11.1289C21.9744 11.1242 19.8923 11.1286 19.8923 11.1286L22.3292 8.70805H25.3885C25.8084 8.70805 26.1486 8.3701 26.1486 7.95302C26.1486 7.53594 25.8084 7.19799 25.3885 7.19799H23.8494L25.6423 5.41711C25.9392 5.12215 25.9392 4.64416 25.6423 4.34919C25.3453 4.05443 24.8473 4.05443 24.5503 4.34919L22.7196 6.15101V4.58054C22.7196 4.16346 22.3794 3.8255 21.9595 3.8255C21.5396 3.8255 21.1994 4.16346 21.1994 4.58054V7.66117L18.6821 10.1784L18.64 7.89866C18.6399 7.89503 18.6436 7.89161 18.6435 7.88799C18.6399 7.70436 18.5721 7.52144 18.4337 7.37869C18.1425 7.07849 17.6454 7.06963 17.343 7.35916L15.7264 8.89198V5.34634L17.9024 3.20164C18.1993 2.90668 18.2077 2.42869 17.9108 2.13383C17.6139 1.83906 17.12 1.83906 16.8231 2.13383L15.7264 3.2106V0.755034C15.7264 0.337953 15.3861 0 14.9663 0C14.5464 0 14.2061 0.337953 14.2061 0.755034V3.2107L13.1389 2.13393C12.8419 1.83916 12.3692 1.83916 12.0723 2.13393C11.7754 2.42889 11.7627 2.90688 12.0596 3.20175L14.2061 5.34644V8.91232L12.5667 7.35443C12.2617 7.06782 11.7893 7.08081 11.5004 7.38352C11.3915 7.49789 11.3299 7.63721 11.3065 7.78168C11.2921 7.84037 11.2859 7.90128 11.2861 7.96399L11.2772 10.1011L8.73324 7.59V4.58054C8.73324 4.16346 8.39301 3.8255 7.97311 3.8255C7.55321 3.8255 7.21297 4.16346 7.21297 4.58054V6.07993L5.48736 4.34919C5.19041 4.05443 4.7177 4.05443 4.42074 4.34919C4.12389 4.64416 4.12814 5.12215 4.425 5.41711L6.22216 7.19799H4.61149C4.19159 7.19799 3.85135 7.53594 3.85135 7.95302C3.85135 8.3701 4.19159 8.70805 4.61149 8.70805H7.74243L10.2503 11.1991L7.91341 11.2827C7.50588 11.2974 7.15084 11.6285 7.14689 12.0295C7.14649 12.0408 7.11152 12.0521 7.11152 12.0634C7.11152 12.0637 7.11152 12.0641 7.11152 12.0645C7.11152 12.0653 7.14649 12.0662 7.14649 12.0669C7.15105 12.2557 7.24328 12.4431 7.38922 12.5862L8.99473 14.1443H5.47551L3.28247 11.966C2.98551 11.6712 2.50429 11.6712 2.20743 11.966C1.91057 12.2609 1.91057 12.7389 2.20743 13.0338L3.32534 14.1442H0.760135C0.340236 14.1442 0 14.4821 0 14.8992C0 15.3163 0.340236 15.6543 0.760135 15.6543H3.29595L2.20743 16.7355C1.91057 17.0304 1.91057 17.5084 2.20743 17.8033C2.35591 17.9507 2.55051 18.0244 2.745 18.0244C2.93949 18.0244 3.13409 17.9507 3.28257 17.8033L5.44601 15.6544H8.99605L7.45014 17.3048C7.16422 17.61 7.18155 18.0877 7.48895 18.3719C7.6353 18.5072 7.82108 18.5741 8.00645 18.5741C8.0099 18.5741 8.01334 18.5736 8.01689 18.5736C8.01912 18.5736 8.02135 18.5739 8.02348 18.5739C8.0253 18.5739 8.02723 18.5739 8.02905 18.5739L10.2593 18.5613L7.71294 21.0906H4.61149C4.19159 21.0906 3.85135 21.4286 3.85135 21.8456C3.85135 22.2627 4.19159 22.6007 4.61149 22.6007H6.19267L4.42926 24.3522C4.1324 24.6472 4.1324 25.1252 4.42926 25.4201C4.57774 25.5674 4.77233 25.6411 4.96682 25.6411C5.16132 25.6411 5.33899 25.5674 5.48747 25.4201L7.21297 23.6894V25.2181C7.21297 25.6352 7.55321 25.9732 7.97311 25.9732C8.39301 25.9732 8.73324 25.6352 8.73324 25.2181V22.1794L11.3121 19.6346L11.4111 22.09C11.4261 22.4973 11.7676 22.8255 12.1745 22.8173C12.3128 22.8146 12.4628 22.7705 12.6116 22.662C12.7193 22.5834 14.2062 21.0702 14.2062 21.0702V24.6324L12.0808 26.7603C11.7838 27.0552 11.7923 27.5333 12.0891 27.8281C12.2376 27.9756 12.4362 28.0493 12.6308 28.0493C12.8253 28.0493 13.0051 27.9756 13.1535 27.8282L14.2062 26.768V29.245C14.2062 29.662 14.5465 30 14.9664 30C15.3862 30 15.7265 29.662 15.7265 29.245V26.697L16.8823 27.8282C17.0308 27.9756 17.2338 28.0493 17.4283 28.0493C17.6228 28.0493 17.8216 27.9756 17.97 27.8282C18.2669 27.5333 18.2521 27.0553 17.9552 26.7604L15.7265 24.5612V20.9673C15.7265 20.9673 17.1179 22.2655 17.3376 22.4749C17.5572 22.6843 17.7371 22.8021 17.9989 22.8021C18.0004 22.8021 18.0019 22.8021 18.0035 22.8021C18.4233 22.8021 18.7617 22.4393 18.7591 22.0223L18.7281 19.6368L21.1995 22.1084V25.2181C21.1995 25.6352 21.5397 25.9732 21.9596 25.9732C22.3795 25.9732 22.7197 25.6352 22.7197 25.2181V23.6184L24.5505 25.4201C24.699 25.5674 24.9019 25.6411 25.0965 25.6411C25.291 25.6411 25.4898 25.5674 25.6382 25.4201C25.9351 25.1251 25.9372 24.6471 25.6404 24.3522L23.8789 22.6007H25.3885C25.8084 22.6007 26.1486 22.2627 26.1486 21.8456C26.1486 21.4286 25.8084 21.0906 25.3885 21.0906H22.3587L19.7497 18.4991L22.0868 18.4155C22.0951 18.4152 22.1032 18.4139 22.1114 18.4134C22.1145 18.4132 22.1175 18.4129 22.1205 18.4126C22.5236 18.3804 22.8337 18.0392 22.8191 17.6338C22.8102 17.3897 22.6853 17.1776 22.4993 17.0461L21.0951 15.6544H24.6256L26.789 17.8033C26.9375 17.9508 27.132 18.0245 27.3266 18.0245C27.521 18.0245 27.7156 17.9508 27.864 17.8034C28.161 17.5085 28.161 17.0304 27.8641 16.7357L26.7756 15.6545H29.2399C29.6598 15.6545 30 15.3165 30 14.8994C30 14.4823 29.6598 14.1443 29.2399 14.1443ZM20.2495 12.6325L18.8334 14.1443H16.8564L18.3768 12.634L20.2495 12.6325ZM17.1497 9.64268L17.1857 11.6563L15.7264 13.0974V10.9893L17.1497 9.64268ZM12.7969 9.65084L14.2061 10.9921V13.0261L12.7948 11.6159L12.7969 9.65084ZM9.71574 12.7293L11.7186 12.6576L13.2154 14.1443H11.1581L9.71574 12.7293ZM9.75466 17.0614L11.0726 15.6544H13.1859L11.7831 17.0478L9.75466 17.0614ZM12.8577 20.2952L12.7712 18.1769L14.2061 16.7432V18.9181L12.8577 20.2952ZM17.2114 20.2615L15.7264 18.9046V16.6718L17.1901 18.1174L17.2114 20.2615ZM20.2694 16.9695L18.2815 17.0406L16.8858 15.6544H18.9425L20.2694 16.9695Z" fill="#00D1FF" stroke="#00D1FF" stroke-width="0.00064"/>
</g>
<defs>
<clipPath id="clip0_46_38">
<rect width="30" height="30" fill="white"/>
</clipPath>
</defs>
</svg>
